<?xml version="1.0" standalone="no"?>
<!DOCTYPE svg PUBLIC "-//W3C//DTD SVG 20010904//EN"
 "http://www.w3.org/TR/2001/REC-SVG-20010904/DTD/svg10.dtd">
<svg version="1.0" xmlns="http://www.w3.org/2000/svg"
 width="1747.000000pt" height="1380.000000pt" viewBox="0 0 1747.000000 1380.000000"
 preserveAspectRatio="xMidYMid meet">

<g transform="translate(0.000000,1380.000000) scale(0.100000,-0.100000)"
fill="#000000" stroke="none">
<path d="M925 13618 c-125 -30 -166 -42 -231 -73 -254 -117 -434 -347 -487
-623 -16 -84 -23 -9951 -7 -10047 57 -341 246 -577 560 -701 119 -47 126 -47
885 -53 l720 -6 6 -655 c5 -651 7 -683 40 -775 95 -259 291 -454 543 -539 l78
-26 6815 0 c6170 0 6821 1 6877 16 92 24 233 98 307 162 158 136 225 249 300
508 12 41 12 10057 0 10098 -41 142 -72 221 -112 287 -112 184 -261 302 -479
380 l-65 23 -655 3 c-360 2 -665 5 -677 8 l-22 5 -3 658 c-4 653 -4 657 -27
732 -27 88 -89 216 -136 280 -120 164 -313 285 -527 330 -90 20 -183 20 -6877
19 -4229 -1 -6801 -5 -6826 -11z m13650 -342 c136 -30 253 -112 329 -231 82
-128 86 -165 86 -795 0 -290 -3 -542 -6 -559 l-7 -31 -7221 2 -7221 3 -3 550
c-3 574 1 648 40 752 58 156 223 287 393 313 28 4 3088 8 6800 8 5550 1 6761
-1 6810 -12z m415 -6157 c0 -3787 -2 -4207 -16 -4262 -25 -97 -70 -176 -143
-247 -74 -73 -140 -112 -226 -135 -53 -13 -775 -15 -6845 -15 -6097 0 -6792 2
-6845 16 -176 45 -323 196 -370 379 -13 49 -15 597 -15 4260 l0 4205 7230 0
7230 0 0 -4201z m1585 4142 c171 -29 310 -135 382 -291 42 -92 44 -126 41
-750 l-3 -595 -830 0 -830 0 -3 810 c-1 446 0 815 2 820 5 14 1160 19 1241 6z
m425 -6182 c0 -3834 -1 -4206 -16 -4257 -47 -165 -170 -299 -329 -358 -49 -18
-235 -19 -6760 -22 -4932 -2 -6726 0 -6769 8 -181 35 -331 166 -395 346 -21
60 -21 72 -21 680 0 340 0 625 0 632 0 9 1191 12 5919 12 6387 0 5973 -3 6131
50 165 56 318 177 425 336 39 58 98 191 126 284 11 37 14 615 16 3268 l3 3222
835 0 835 0 0 -4201z"/>
<path d="M1541 12980 c-181 -38 -349 -199 -398 -379 -19 -72 -19 -200 0 -274
56 -206 237 -364 442 -383 33 -4 69 -7 79 -8 24 -3 140 20 181 36 61 24 156
91 200 141 113 129 158 303 120 464 -42 179 -156 311 -328 380 -70 28 -219 39
-296 23z m211 -360 c82 -54 109 -151 67 -237 -41 -84 -130 -124 -218 -97 -133
39 -181 196 -91 298 65 74 163 88 242 36z"/>
<path d="M3110 12984 c-193 -38 -355 -182 -412 -367 -17 -58 -20 -86 -15 -180
5 -123 19 -168 74 -254 123 -189 341 -279 565 -232 200 41 362 215 399 426 35
202 -56 412 -226 523 -94 61 -155 81 -265 85 -52 2 -106 1 -120 -1z m174 -354
c23 -11 54 -39 71 -63 25 -35 30 -51 30 -102 0 -109 -75 -185 -183 -185 -67 0
-116 26 -155 81 -49 69 -38 178 25 236 60 56 140 68 212 33z"/>
<path d="M4645 12980 c-273 -58 -455 -320 -414 -593 31 -208 204 -396 400
-436 279 -57 530 86 626 356 12 34 17 81 17 158 1 94 -3 119 -23 170 -65 159
-164 262 -314 322 -68 28 -217 40 -292 23z m178 -344 c41 -17 88 -66 104 -108
28 -78 3 -164 -63 -214 -33 -26 -46 -29 -108 -29 -63 0 -76 3 -113 30 -42 30
-83 101 -83 143 0 33 29 105 53 130 53 57 141 77 210 48z"/>
<path d="M11338 12844 c-15 -8 -35 -28 -43 -44 -24 -46 -19 -78 19 -116 l34
-34 242 0 242 0 29 31 c42 46 41 99 -5 145 l-34 34 -228 0 c-183 -1 -235 -4
-256 -16z"/>
<path d="M12179 12845 c-34 -18 -63 -78 -54 -112 3 -14 20 -39 37 -55 l30 -28
932 0 931 0 55 -28 c41 -21 62 -40 85 -76 l30 -49 3 -240 c2 -165 6 -248 15
-266 27 -57 138 -59 175 -3 15 23 17 56 17 287 l0 260 -32 66 c-60 122 -158
206 -280 240 -64 18 -116 19 -993 19 -780 -1 -929 -3 -951 -15z"/>
<path d="M14252 6395 l-32 -27 -2 -1571 -3 -1572 -24 -41 c-13 -23 -40 -51
-61 -63 l-38 -21 -5881 0 c-5106 0 -5886 -2 -5916 -14 -42 -18 -71 -71 -61
-111 4 -15 19 -38 33 -51 l26 -24 5906 0 c5052 0 5913 2 5952 14 117 36 207
128 248 255 8 24 11 494 11 1616 l0 1582 -24 22 c-13 12 -42 25 -63 28 -32 4
-45 0 -71 -22z"/>
<path d="M15579 10823 c-31 -13 -59 -59 -59 -97 0 -14 14 -41 31 -60 l30 -35
324 -3 323 -3 44 -30 c23 -17 53 -49 65 -70 22 -38 23 -50 23 -276 0 -191 3
-242 15 -266 37 -75 125 -84 177 -19 16 19 18 49 18 276 0 187 -4 267 -14 300
-45 149 -172 262 -325 290 -86 15 -612 10 -652 -7z"/>
<path d="M16412 4394 c-55 -38 -52 58 -52 -1636 0 -1535 0 -1564 -20 -1595
-10 -18 -37 -44 -59 -58 l-41 -25 -5898 0 -5898 0 -23 -21 c-52 -49 -51 -123
3 -164 l33 -25 5914 2 5914 3 65 32 c85 42 159 119 193 201 l27 63 0 1589 0
1588 -29 31 c-23 24 -37 31 -68 31 -21 0 -49 -7 -61 -16z"/>
</g>
</svg>
